<svg version="1" xmlns="http://www.w3.org/2000/svg" width="167" height="125.173" viewBox="0 0 167 125.173">
  <path fill="#808285" d="M52.974 41.117v42.872c0 2.289.764 3.514 4.519 3.514h3.255v4.469H37.08l.01-4.469h3.206c3.805 0 4.547-1.225 4.547-3.514V41.117c0-2.289-.742-3.53-4.547-3.53H37.08v-4.375h23.667v4.375H57.52c-3.783-.001-4.546 1.241-4.546 3.53zm73.284-3.531c2.279 0 3.089.539 4.435 1.754l4.206 4.047.03-10.176H86.12v4.375h4.007c2.626 0 3.352.848 3.352 3.974v42.428c0 2.289-.771 3.514-4.558 3.541l-3.225-.027v4.469h23.974l-.028-4.441-3.196-.027c-3.823 0-4.539-1.225-4.539-3.514V62.84h18.164c1.592 0 2.741.863 3.61 2.647l.223.463h1.524V55.389h-1.507l-.193.384c-1.061 1.845-2.221 2.697-3.657 2.697h-18.164V37.586h24.351zm27.258 13.06c0 2.222 1.941 4.065 4.371 4.039 2.387.027 4.338-1.816 4.338-4.039 0-2.219-1.951-4.041-4.338-4.041-2.43 0-4.391 1.822-4.371 4.041zm4.371 17.322c-2.43 0-4.371 1.795-4.371 4.046-.02 2.231 1.92 4.039 4.371 4.039 2.387 0 4.338-1.808 4.338-4.039 0-2.251-1.952-4.046-4.338-4.046zm-2.075 46.914H9.891V10.286h145.922v24.452h5.099V5.172H4.775v114.83h156.136V90.436h-5.099v24.446z"/>
</svg>
